<?xml version="1.0" encoding="utf-8"?>
<!-- Generator: Adobe Illustrator 27.0.1, SVG Export Plug-In . SVG Version: 6.00 Build 0)  -->
<svg version="1.1" id="Слой_1" xmlns="http://www.w3.org/2000/svg" xmlns:xlink="http://www.w3.org/1999/xlink" x="0px" y="0px"
	 viewBox="0 0 1920 700" style="enable-background:new 0 0 1920 700;" xml:space="preserve">
<style type="text/css">
	.st0{fill:#0094FF;}
	.st1{font-family:'MyriadPro-Regular';}
	.st2{font-size:395px;}
	.st3{fill:#3FA9F5;}
	.st4{font-family:'CenturyGothic';}
	.st5{font-size:89px;}
</style>
<g>
	<path class="st0" d="M356.8,649c-40.3,0-79.4-7.9-116.2-23.5c-35.6-15-67.5-36.6-94.9-64c-27.4-27.4-48.9-59.3-64-94.9
		c-15.6-36.8-23.5-75.9-23.5-116.2c0-40.3,7.9-79.4,23.5-116.2c15-35.6,36.6-67.5,64-94.9c27.4-27.4,59.3-48.9,94.9-64
		c36.8-15.6,75.9-23.5,116.2-23.5c40.3,0,79.4,7.9,116.2,23.5c35.6,15,67.5,36.6,94.9,64c27.4,27.4,48.9,59.3,64,94.9
		c15.6,36.8,23.5,75.9,23.5,116.2c0,40.3-7.9,79.4-23.5,116.2c-5,11.9-10.9,23.5-17.4,34.6c-1.4,2.4-4,3.9-6.9,3.9
		c-2.1,0-4.1-0.8-5.6-2.3l-43.4-43.4c-2.4-2.4-3-6.1-1.5-9.2c15.6-31.2,23.5-64.8,23.5-99.8c0-121.3-95-219.6-216.2-223.7
		c-2.7-0.1-5.4-0.1-8-0.1c-61.7,0-118.9,24-161.1,67.6c-42.2,43.7-64.3,101.9-62.2,163.8c4.1,121.2,102.3,216.2,223.7,216.2
		c35.1,0,68.7-7.9,99.9-23.6c1.1-0.6,2.3-0.8,3.6-0.8c2.1,0,4.1,0.8,5.6,2.3l43.4,43.4c1.8,1.8,2.6,4.2,2.3,6.6
		c-0.3,2.5-1.7,4.6-3.9,5.8c-11.1,6.5-22.8,12.4-34.7,17.4C436.2,641.1,397.1,649,356.8,649z"/>
	<path class="st0" d="M593.2,586.8L593.2,586.8c-16.1,16.1-42.2,16.1-58.3,0l-178-178c-16.1-16.1-16.1-42.2,0-58.3l0,0
		c16.1-16.1,42.2-16.1,58.3,0l178,178C609.3,544.6,609.3,570.7,593.2,586.8z"/>
</g>
<g>
	<text transform="matrix(1 0 0 1 788.0215 443.1274)"><tspan x="0" y="0" class="st1 st2">r</tspan><tspan x="129.2" y="0" class="st0 st1 st2">EF</tspan><tspan x="515.9" y="0" class="st3 st1 st2">I</tspan><tspan x="610.3" y="0" class="st1 st2">nd</tspan></text>
	<text transform="matrix(1 0 0 1 808.3618 561.4258)" class="st4 st5">Automenu configurator</text>
</g>
</svg>
